# xmcd CD database file
#
# Track frame offsets:
#	150
#	16331
#	33683
#	48773
#	68621
#	84591
#	101756
#	117139
#	131315
#	147887
#	164635
#	183255
#	201624
#	215807
#	234261
#	252438
#	270227
#
# Disc length: 3857 seconds
#
# Revision: 2
# Processed by: cddbd v1.5.2PL0 Copyright (c) Steve Scherf et al.
# Submitted via: CDex 1.51
#
DISCID=f00f0f11
DTITLE=Various Artist - RC92
DYEAR=2005
DGENRE=Country
TTITLE0=Gretchen Wilson - All Jacked Up
TTITLE1=Keith Urban - Better Life
TTITLE2=Lonestar - You're Like Comin' Home
TTITLE3=Rascal Flatts - Skin (Sarabeth)
TTITLE4=Jo Dee Messina - Delicious Surprise (I Believe It)
TTITLE5=Shooter Jennings - 4th Of July
TTITLE6=Hot Apple Pie - Hillbillies
TTITLE7=Joe Nichols - Tequila Makes Her Clothes Fall Off
TTITLE8=Neal McCoy - Billy's Got His Beer Goggles On
TTITLE9=Lee Ann Womack - He Oughta Know That By Now
TTITLE10=Gary Allan - Best I Ever Had
TTITLE11=Kenny Chesney - Who You'd Be Today
TTITLE12=Phil Vassar - Good Ole Days
TTITLE13=Little Big Town - Boondocks
TTITLE14=Billy Currington - Must Be Doing Somethin' Right
TTITLE15=Chris Cagle - Miss Me Baby
TTITLE16=Dierks Bently - Come A Little Closer
EXTD=YEAR: 2005
EXTT0=
EXTT1=
EXTT2=
EXTT3=
EXTT4=
EXTT5=
EXTT6=
EXTT7=
EXTT8=
EXTT9=
EXTT10=
EXTT11=
EXTT12=
EXTT13=
EXTT14=
EXTT15=
EXTT16=
PLAYORDER=
